#!OML:ASF X:\für Bonn\!DataBase\2005_08_10_Bjorn_Final\c3d\bjorn.ASF
:FULLY-SPECIFIED
:DEGREES
404
root 1.46072 18.7627 9.87932 -182.19 0.633118 179.337
lowerback 0.433863 0.391029 2.04844
upperback 11.2804 1.85901 -0.772225
thorax 11.9307 1.71791 -1.67544
lowerneck 2.40148 1.05255 3.92103
upperneck 25.5526 -0.515592 -5.80508
head 7.41163 -1.40161 -2.75846
rclavicle -6.03808e-015 -3.27995e-015
rhumerus -375.76 -18.1502 272.518
rradius 47.8053
rwrist -14.3843
rhand -16.1656 10.0973
rfingers 7.12502
rthumb 10.0404 -19.6432
lclavicle -6.03808e-015 -3.27995e-015
lhumerus -11.7915 -24.352 75.821
lradius 53.7747
lwrist 12.4574
lhand -23.3828 -7.53556
lfingers 7.12502
lthumb 3.07347 22.422
rfemur -22.0577 -5.42118 14.3126
rtibia 39.1188
rfoot -12.421 9.37037
rtoes 3.69906
lfemur 3.31059 5.57756 -16.1434
ltibia 27.7277
lfoot -21.4382 -1.39951
ltoes -14.9648
405
root 1.43233 18.764 9.95238 -182.223 0.298331 179.307
lowerback 0.533656 0.366464 1.88599
upperback 11.3187 1.86719 -0.867669
thorax 11.9132 1.7207 -1.68764
lowerneck 2.40447 0.943457 3.99353
upperneck 25.4748 -0.665464 -5.73794
head 7.3778 -1.4526 -2.75293
rclavicle -6.44808e-015 -6.95746e-016
rhumerus -375.702 -17.1674 272.349
rradius 48.669
rwrist -14.0992
rhand -16.075 10.3456
rfingers 7.12502
rthumb 10.1278 -19.3907
lclavicle -6.44808e-015 -6.95746e-016
lhumerus -10.8741 -25.2622 75.3758
lradius 54.1194
lwrist 9.24052
lhand -24.98 -7.92191
lfingers 7.12502
lthumb 1.53084 22.0523
rfemur -22.1257 -5.41202 14.1558
rtibia 38.9682
rfoot -12.3126 9.07994
rtoes 3.954
lfemur 3.02317 5.42763 -16.3082
ltibia 27.7751
lfoot -21.4852 -1.59219
ltoes -13.9725
406
root 1.40339 18.7654 10.026 -182.237 -0.0363567 179.271
lowerback 0.636867 2.08391 1.73725
upperback 11.3796 1.45795 -0.691542
thorax 11.9214 0.378113 -1.69009
lowerneck 2.37245 0.823269 4.06781
upperneck 25.4035 -0.822815 -5.70239
head 7.35142 -1.50938 -2.75904
rclavicle 2.41834e-014 -1.19581e-014
rhumerus -375.69 -16.1941 272.239
rradius 49.5135
rwrist -13.7227
rhand -16.0195 10.7052
rfingers 7.12502
rthumb 10.1814 -19.0284
lclavicle 2.41834e-014 -1.19581e-014
lhumerus -9.97347 -26.1031 74.9384
lradius 54.3974
lwrist 5.42468
lhand -26.7369 -8.11617
lfingers 7.12502
lthumb -0.166003 21.8635
rfemur -22.1972 -5.40572 13.9947
rtibia 38.7939
rfoot -12.2052 8.81273
rtoes 4.14036
lfemur 2.70392 5.27205 -16.4776
ltibia 27.8466
lfoot -21.4827 -1.7872
ltoes -13.0956
407
root 1.37445 18.7687 10.0994 -182.219 -0.362415 179.238
lowerback 0.680578 2.08366 1.56715
upperback 11.4305 1.46443 -0.770886
thorax 11.9496 0.365397 -1.68226
lowerneck 2.2954 0.704448 4.12634
upperneck 25.3316 -0.973074 -5.66737
head 7.33296 -1.56281 -2.76253
rclavicle 1.16538e-014 -4.94477e-015
rhumerus -375.612 -15.2446 272.135
rradius 50.2793
rwrist -13.3087
rhand -16.0403 11.2002
rfingers 7.12502
rthumb 10.1613 -18.5344
lclavicle 1.16538e-014 -4.94477e-015
lhumerus -9.01084 -26.8663 74.4674
lradius 54.6358
lwrist 1.4307
lhand -28.507 -8.15905
lfingers 7.12502
lthumb -1.8756 21.8124
rfemur -22.3047 -5.44501 13.8359
rtibia 38.6078
rfoot -12.0781 8.62437
rtoes 4.40229
lfemur 2.34716 5.1514 -16.6397
ltibia 27.9282
lfoot -21.4822 -1.96239
ltoes -12.6632
408
root 1.34442 18.7742 10.1725 -182.142 -0.688316 179.214
lowerback 0.677426 2.06981 1.40256
upperback 11.4628 1.45655 -0.83733
thorax 11.9839 0.347825 -1.66381
lowerneck 2.23036 0.59452 4.13375
upperneck 25.2243 -1.10837 -5.60871
head 7.30176 -1.61021 -2.74727
rclavicle -5.26779e-015 -2.5345e-015
rhumerus -375.568 -14.3005 272.075
rradius 51.0248
rwrist -12.7653
rhand -16.0719 11.7408
rfingers 7.12502
rthumb 10.1308 -17.9953
lclavicle -5.26779e-015 -2.5345e-015
lhumerus -8.0749 -27.5533 74.0119
lradius 54.9064
lwrist -2.30206
lhand -30.074 -8.33499
lfingers 7.12502
lthumb -3.38888 21.6178
rfemur -22.4648 -5.51893 13.6944
rtibia 38.4052
rfoot -11.9704 8.46565
rtoes 4.46647
lfemur 1.9086 5.00496 -16.7972
ltibia 28.0256
lfoot -21.4257 -2.17852
ltoes -11.9822
409
root 1.3133 18.7798 10.245 -182.057 -1.02286 179.192
lowerback 0.672399 2.04814 1.25298
upperback 11.4863 1.43983 -0.91097
thorax 12.0098 0.328574 -1.66219
lowerneck 2.15713 0.499648 4.14368
upperneck 25.1505 -1.23236 -5.5291
head 7.28428 -1.65234 -2.72632
rclavicle -3.03892e-014 1.19271e-014
rhumerus -375.554 -13.3549 272.039
rradius 51.6704
rwrist -12.1408
rhand -16.2146 12.4566
rfingers 7.12502
rthumb 9.99311 -17.2862
lclavicle -3.03892e-014 1.19271e-014
lhumerus -7.16973 -28.1189 73.5669
lradius 55.1401
lwrist -5.73165
lhand -31.3153 -8.87947
lfingers 7.12502
lthumb -4.58761 21.0509
rfemur -22.6232 -5.64698 13.5496
rtibia 38.1939
rfoot -11.8817 8.37281
rtoes 4.36234
lfemur 1.46392 4.8935 -16.9457
ltibia 28.1316
lfoot -21.3709 -2.43666
ltoes -11.532
410
root 1.28048 18.7858 10.3176 -181.956 -1.36516 179.158
lowerback 0.633365 2.01236 1.07395
upperback 11.5335 1.39887 -0.957974
thorax 12.0814 0.291514 -1.61792
lowerneck 2.04342 0.414746 4.04614
upperneck 25.0602 -1.34005 -5.40896
head 7.27018 -1.69121 -2.67252
rclavicle -2.88238e-015 -4.17448e-015
rhumerus -375.501 -12.3658 272.064
rradius 52.2216
rwrist -11.3436
rhand -16.4754 13.2716
rfingers 7.12502
rthumb 9.74146 -16.4831
lclavicle -2.88238e-015 -4.17448e-015
lhumerus -6.24654 -28.5115 73.1649
lradius 55.3293
lwrist -9.05945
lhand -32.3694 -9.66871
lfingers 7.12502
lthumb -5.60535 20.2372
rfemur -22.7963 -5.87487 13.3893
rtibia 37.9695
rfoot -11.7779 8.4221
rtoes 4.28431
lfemur 0.994092 4.81059 -17.0982
ltibia 28.2484
lfoot -21.2947 -2.74576
ltoes -11.0856
